<svg id="Layer_1" data-name="Layer 1" xmlns="http://www.w3.org/2000/svg" xmlns:xlink="http://www.w3.org/1999/xlink" viewBox="0 0 995 493.03"><defs><style>.cls-1{fill:url(#linear-gradient);}</style><linearGradient id="linear-gradient" x1="499.96" y1="3.48" x2="499.96" y2="496.52" gradientUnits="userSpaceOnUse"><stop offset="0" stop-color="#61cccd"/><stop offset="1" stop-color="#6498ce"/></linearGradient></defs><title>fresh</title><path class="cls-1" d="M978.09,246.77c-32.27,46.18-63.06,70.5-72,70.5-4.47,0-7-2-7-7.45,0-12.41,16.39-52.63,24.83-74.48,7.45-18.87,11.91-34.26,11.91-49.65,0-17.38-9.93-29.29-28.8-29.29-19.36,0-54.12,18.87-89.87,51.64,4-32.77,9.43-70,17.38-99.3,39.23-32.27,53.62-48.66,53.62-68,0-19.86-25.82-37.24-47.17-37.24-23.34,0-40.71,17.87-55.11,55.11-33.27-13.9-46.67-17.38-63.06-17.38C669.76,41.22,639,76,639,125.13a80.94,80.94,0,0,0,1.49,15.39c-26.81,11.42-37.73,29.29-37.73,50.15,0,30.78,29.79,100.79,29.79,126.11,0,8.44-5.46,11.42-10.43,11.42-11.42,0-28.3-14.89-32.27-36.74,8.44-9.43,12.91-16.88,12.91-27.31,0-12.41-13.9-34.76-31.28-34.76-17.09,0-26.09,23.77-29.93,48.06-25,24.13-54.19,38.83-78.3,38.83-19.36,0-23.83-12.41-23.83-34.76,68-15.39,92.35-47.66,92.35-89.37,0-34.76-18.87-51.14-53.13-51.14-43.87,0-98.45,63.46-107.82,131.43-22.27,27.68-45.7,46.32-56.52,46.32-6.45,0-8.44-5-8.44-11.92,0-12.41,9.93-36.74,21.35-59.58,7.94-15.89,13.41-27.8,13.41-37.73,0-11.92-6-18.87-35.25-27.31-8.44-2.48-17.87-6-23.34-8.94,6.45-10.92,16.88-18.37,28.8-24.83a32,32,0,0,0,1.49-9.93c0-13.41-11.42-21.35-28.3-21.35-23.83,0-70,32.27-76.46,73-7.45,5-19.86,7.45-32.77,7.45s-25.82-2.48-34.75-7.45c32.27-66,42.2-98.31,42.2-113.2,0-31.28-30.78-62.06-57.1-62.06-25.32,0-33.26,8.94-40.22,78-2,20.36-7,61.57-8.94,78.95-10.92,1-21.35,15.89-21.35,29.79,0,7.94,4.47,11.92,13.9,12.41-6,30.78-23.83,89.37-35.75,124.62C4.94,421.54,2.46,434.45,2.46,453.32c0,27.31,15.89,43.2,49.65,43.2,65.54,0,139.52-116.18,139.52-205.55,0-15.39-4.47-43.2-19.86-55.61a66.63,66.63,0,0,0,9.93.5c16.88,0,31.28-4,39.22-9.93,14.4,10.92,35.75,15.89,35.75,26.31,0,12.91-24.33,55.11-24.33,87.88,0,28.3,16.88,41.71,47.17,41.71,25.89,0,64.39-28.4,92.88-58.7,7.56,34.35,29.56,53.24,68,53.24,33.66,0,72.3-21.47,101.59-47.22,9.17,34.77,39.8,53.18,72.19,53.18,49.15,0,87.88-26.81,87.88-78.45,0-21.35-8.94-50.64-29.79-92.85a270.71,270.71,0,0,1-11.42-25.32c8.44,10.92,18.87,18.37,29.29,18.37,18.87,0,39.22-28.3,39.22-47.17,0-14.89-16.38-20.85-45.18-20.85,1-23.83,11.92-36.24,30.29-36.24,8.94,0,31.28,2,57.59,6.45-9.93,41.21-17.87,94.83-24.82,161.86-8.94,18.87-13.41,42.7-13.41,59.58,0.5,25.82,23.34,47.17,52.13,47.17,9.93,0,14.9-3,18.37-7,0.5-33.27,5.46-92.85,8.94-118.67,13.41-11.42,25.32-16.88,33.76-16.88,5.46,0,6.95,4,6.95,7.94,0,10.92-25.82,68-25.82,100.79,0,27.31,9.93,40.22,39.22,40.22,45.68,0,130.09-86.89,130.09-118.17C997.46,253.23,987.53,246.77,978.09,246.77ZM466.2,193.15c6,0,9.93,6,9.93,16.38,0,14.9-6,30.29-33.76,35.25C445.84,210,459.24,193.15,466.2,193.15ZM82.89,431.47c-3.48,0-6-1.49-6-5a18.42,18.42,0,0,1,1-4.47c10.43-25.32,38.73-105.26,49.65-174.27,7.45,9.93,13.9,29.79,13.9,53.13C141.48,354.52,101.76,431.47,82.89,431.47Z" transform="translate(-2.46 -3.48)"/></svg>