<?xml version="1.0" encoding="utf-8"?>
<!-- Generator: Adobe Illustrator 19.2.1, SVG Export Plug-In . SVG Version: 6.00 Build 0)  -->
<svg version="1.1" id="Layer_1" xmlns="http://www.w3.org/2000/svg" xmlns:xlink="http://www.w3.org/1999/xlink" x="0px" y="0px"
	 viewBox="0 0 995 493" style="enable-background:new 0 0 995 493;" xml:space="preserve">
<style type="text/css">
	.st0{fill:url(#SVGID_1_);}
</style>
<title>fresh</title>
<linearGradient id="SVGID_1_" gradientUnits="userSpaceOnUse" x1="499.96" y1="-0.52" x2="499.96" y2="492.5" gradientTransform="matrix(1 0 0 -1 -2.46 492.52)">
	<stop  offset="3.496503e-03" style="stop-color:#61CCCD"/>
	<stop  offset="1" style="stop-color:#98CD97"/>
</linearGradient>
<path class="st0" d="M975.6,243.3c-32.3,46.2-63.1,70.5-72,70.5c-4.5,0-7-2-7-7.5c0-12.4,16.4-52.6,24.8-74.5
	c7.5-18.9,11.9-34.3,11.9-49.6c0-17.4-9.9-29.3-28.8-29.3c-19.4,0-54.1,18.9-89.9,51.6c4-32.8,9.4-70,17.4-99.3
	c39.2-32.3,53.6-48.7,53.6-68c0-19.9-25.8-37.2-47.2-37.2c-23.3,0-40.7,17.9-55.1,55.1c-33.3-13.9-46.7-17.4-63.1-17.4
	c-53.1,0-83.8,34.8-83.8,83.9c0,5.2,0.5,10.3,1.5,15.4c-26.8,11.4-37.7,29.3-37.7,50.2c0,30.8,29.8,100.8,29.8,126.1
	c0,8.4-5.5,11.4-10.4,11.4c-11.4,0-28.3-14.9-32.3-36.7c8.4-9.4,12.9-16.9,12.9-27.3c0-12.4-13.9-34.8-31.3-34.8
	c-17.1,0-26.1,23.8-29.9,48.1c-25,24.1-54.2,38.8-78.3,38.8c-19.4,0-23.8-12.4-23.8-34.8c68-15.4,92.3-47.7,92.3-89.4
	c0-34.8-18.9-51.1-53.1-51.1c-43.9,0-98.5,63.5-107.8,131.4c-22.3,27.7-45.7,46.3-56.5,46.3c-6.5,0-8.4-5-8.4-11.9
	c0-12.4,9.9-36.7,21.4-59.6c7.9-15.9,13.4-27.8,13.4-37.7c0-11.9-6-18.9-35.2-27.3c-8.4-2.5-17.9-6-23.3-8.9
	c6.5-10.9,16.9-18.4,28.8-24.8c1-3.2,1.5-6.6,1.5-9.9c0-13.4-11.4-21.4-28.3-21.4c-23.8,0-70,32.3-76.5,73c-7.4,5-19.9,7.4-32.8,7.4
	s-25.8-2.5-34.8-7.4c32.3-66,42.2-98.3,42.2-113.2c0-31.3-30.8-62.1-57.1-62.1c-25.3,0-33.3,8.9-40.2,78c-2,20.4-7,61.6-8.9,79
	c-10.9,1-21.3,15.9-21.3,29.8c0,7.9,4.5,11.9,13.9,12.4c-6,30.8-23.8,89.4-35.8,124.6C2.5,418.1,0,431,0,449.8
	C0,477.1,15.9,493,49.7,493c65.5,0,139.5-116.2,139.5-205.5c0-15.4-4.5-43.2-19.9-55.6c3.3,0.4,6.6,0.6,9.9,0.5
	c16.9,0,31.3-4,39.2-9.9c14.4,10.9,35.8,15.9,35.8,26.3c0,12.9-24.3,55.1-24.3,87.9c0,28.3,16.9,41.7,47.2,41.7
	c25.9,0,64.4-28.4,92.9-58.7c7.6,34.4,29.6,53.2,68,53.2c33.7,0,72.3-21.5,101.6-47.2c9.2,34.8,39.8,53.2,72.2,53.2
	c49.2,0,87.9-26.8,87.9-78.4c0-21.4-8.9-50.6-29.8-92.8c-4.2-8.2-8-16.7-11.4-25.3c8.4,10.9,18.9,18.4,29.3,18.4
	c18.9,0,39.2-28.3,39.2-47.2c0-14.9-16.4-20.9-45.2-20.9c1-23.8,11.9-36.2,30.3-36.2c8.9,0,31.3,2,57.6,6.4
	c-9.9,41.2-17.9,94.8-24.8,161.9c-8.9,18.9-13.4,42.7-13.4,59.6c0.5,25.8,23.3,47.2,52.1,47.2c9.9,0,14.9-3,18.4-7
	c0.5-33.3,5.5-92.9,8.9-118.7c13.4-11.4,25.3-16.9,33.8-16.9c5.5,0,7,4,7,7.9c0,10.9-25.8,68-25.8,100.8c0,27.3,9.9,40.2,39.2,40.2
	c45.7,0,130.1-86.9,130.1-118.2C995,249.8,985.1,243.3,975.6,243.3z M463.7,189.7c6,0,9.9,6,9.9,16.4c0,14.9-6,30.3-33.8,35.2
	C443.4,206.5,456.8,189.7,463.7,189.7z M80.4,428c-3.5,0-6-1.5-6-5c0.1-1.5,0.5-3,1-4.5c10.4-25.3,38.7-105.3,49.7-174.3
	c7.4,9.9,13.9,29.8,13.9,53.1C139,351,99.3,428,80.4,428z"/>
</svg>
